PathFileType	4	(X/Y/Z)	OpenSim_Sub06_EMGBaseline_Gyro.trc
DataRate	CameraRate	NumFrames	NumMarkers	Units	OrigDataRate	OrigDataStartFrame	OrigNumFrames
100	100	30	8	m	100	5169	8270
Frame#	Time	torso_imu_offset_imu	pelvis_imu_offset_imu	tibia_r_imu_offset_imu	femur_r_imu_offset_imu	tibia_l_imu_offset_imu	femur_l_imu_offset_imu	toes_r_imu_offset_imu	toes_l_imu_offset_imu
				X1	Y1	Z1	X2	Y2	Z2	X3	Y3	Z3	X4	Y4	Z4	X5	Y5	Z5	X6	Y6	Z6	X7	Y7	Z7	X8		Y8	Z8	

5169	51.68000000	-0.59113809	-0.24990822	-0.10335081	-0.53720393	0.18910918	0.39908356	-1.15467717	-0.27889523	2.13025452	-0.44808104	0.49800064	1.13666630	-0.79312166	-0.18373661	0.42087543	-0.04437030	-0.38071670	0.94935996	-0.42703831	2.66458851	2.36987738	0.01264203	-0.07567814	0.06895052
5170	51.69000000	-0.64461359	-0.26879093	-0.08612570	-0.54482975	0.22146108	0.36575099	-0.18756876	-0.14054890	2.36332019	-0.39074539	0.44985301	1.10785467	-0.17027658	-0.03529836	0.51759293	0.04688667	-0.31037959	1.00704044	-0.51253166	3.02850250	2.36210636	-0.00588806	-0.11416957	0.07133867
5171	51.70000000	-0.68648537	-0.27850075	-0.08295815	-0.53930821	0.24444424	0.29966151	0.60965286	-0.01988036	2.70002522	-0.32497354	0.38185386	1.06403032	0.39593902	0.06885210	0.59368621	0.15776296	-0.23342983	1.00878510	-0.63381995	3.33109385	2.23971190	0.05045309	-0.08798409	0.04635076
5172	51.71000000	-0.71103629	-0.27588056	-0.10016400	-0.53577307	0.25371996	0.22267105	1.23130377	0.11636629	3.11896502	-0.23610385	0.30417786	1.00634626	0.78642953	0.13009767	0.62511382	0.20036481	-0.15734528	0.95555787	-0.88975910	3.54959028	2.10451478	0.03356294	-0.11608098	0.05031661
5173	51.72000000	-0.71663324	-0.26729105	-0.11917287	-0.52889808	0.23515575	0.16088161	1.58195310	0.22616038	3.50373204	-0.16504951	0.23060986	0.92054846	0.93367561	0.15996456	0.62725020	0.15705784	-0.08482497	0.88266356	-1.20580050	3.69504251	1.99294939	0.01169850	-0.10657102	0.06381330
5174	51.73000000	-0.72765302	-0.26924082	-0.15219088	-0.51124728	0.23707157	0.09034093	1.73263962	0.31104341	3.78032880	-0.11727087	0.19446067	0.81639721	0.92267077	0.18002688	0.61918449	0.12630084	-0.04990737	0.83318513	-1.48298008	3.79262061	1.93686796	0.04298950	-0.09175787	0.07183252
5175	51.74000000	-0.72329922	-0.27269553	-0.19298673	-0.48575558	0.23891548	0.04844188	1.74182227	0.35402501	3.96844230	-0.06190370	0.18313597	0.68829816	0.77429565	0.19009950	0.62104992	0.17200592	-0.06350196	0.84166254	-1.65764106	3.86065941	1.90781996	-0.03506053	-0.06888493	0.09371119
5176	51.75000000	-0.70541276	-0.26697359	-0.23104542	-0.48122751	0.26319682	0.01215356	1.61782759	0.35553199	4.12860289	0.00816890	0.17390642	0.53609707	0.49789115	0.17156484	0.60443477	0.24911028	-0.09380025	0.89769575	-1.70841921	3.88096112	1.87056669	0.04204502	-0.04277105	0.09822949
5177	51.76000000	-0.67768436	-0.23764466	-0.24719106	-0.47973796	0.29166979	-0.01133198	1.37078494	0.32244955	4.32912543	0.10623864	0.12925090	0.37598149	0.13013259	0.12293437	0.56551254	0.27612006	-0.11876009	0.95006482	-1.63846530	3.85230869	1.78182698	-0.04094511	-0.03496917	0.11923624
5178	51.77000000	-0.65917409	-0.20597680	-0.26387890	-0.48889197	0.31302017	-0.01728918	1.05619840	0.26408136	4.57496086	0.23864591	0.04823518	0.23026230	-0.20386473	0.08074374	0.50531356	0.25081597	-0.12904189	1.00702001	-1.49102249	3.69666761	1.63863517	-0.04889768	-0.02320197	0.13463577
5179	51.78000000	-0.64311556	-0.18309241	-0.27147428	-0.50116833	0.31687194	0.01224447	0.82006361	0.23784697	4.79710155	0.35161611	-0.06140555	0.02026281	-0.48237922	0.06775395	0.45631323	0.19595771	-0.12610096	1.06553838	-1.40321719	3.44825759	1.50766558	-0.02064797	-0.02937001	0.14368894
5180	51.79000000	-0.61527237	-0.15997059	-0.27691562	-0.50397196	0.29200236	0.03577044	0.71311311	0.29547363	4.94695672	0.42142967	-0.16836898	-0.18514097	-0.65300460	0.05629238	0.44521506	0.07735599	-0.13820652	1.07193511	-1.36200683	3.33366126	1.53255314	-0.05750606	-0.01350019	0.13402625
5181	51.80000000	-0.59465818	-0.14204318	-0.26532015	-0.47696748	0.25219455	0.07472819	0.61310084	0.41232739	5.06350479	0.46337698	-0.23925643	-0.37789516	-0.66227338	0.07316146	0.46057889	-0.08176279	-0.14497434	1.06009692	-1.16254461	3.44018459	1.75498649	-0.01283503	-0.04933175	0.14319924
5182	51.81000000	-0.56903138	-0.12558500	-0.26389403	-0.41443346	0.19323354	0.09444336	0.44967531	0.59044314	5.12598269	0.48374742	-0.25306813	-0.54201251	-0.58291520	0.08426962	0.51435847	-0.22929775	-0.13151443	1.05406062	-0.79068809	3.41463388	2.07621512	-0.09401374	-0.08015712	0.16342292
5183	51.82000000	-0.55291984	-0.11803116	-0.25894331	-0.35285213	0.12471382	0.10550806	0.34573588	0.82379463	5.12191715	0.54002573	-0.20003529	-0.67295884	-0.44392455	0.10488923	0.57979328	-0.38012107	-0.09211618	1.02344873	-0.34592589	2.98333259	2.39991613	-0.04722994	-0.08986619	0.17010656
5184	51.83000000	-0.52772623	-0.10795111	-0.25414648	-0.28251525	0.05849119	0.11802667	0.41344619	0.91982662	5.09312456	0.56581202	-0.10817061	-0.80656593	-0.28896878	0.13933586	0.66064516	-0.47664775	-0.06712936	0.99818975	-0.00853453	2.29990632	2.70256872	-0.07954865	-0.13689795	0.18491481
5185	51.84000000	-0.49798205	-0.08720148	-0.23925273	-0.21335518	-0.00507423	0.11598975	0.90571472	0.68307672	4.97526751	0.51554746	-0.02040603	-0.90646404	-0.13366667	0.16061769	0.74870002	-0.52389548	-0.06706365	0.97870324	0.08617728	1.59813092	3.06705144	-0.02191848	-0.11004009	0.17379864
5186	51.85000000	-0.45450175	-0.06624720	-0.21923613	-0.18320508	-0.07481288	0.13284291	1.96028464	0.24111747	4.50805679	0.49156634	-0.01172499	-0.96023652	-0.01637338	0.18743209	0.83404498	-0.54504433	-0.08207326	0.93429198	-0.16831711	0.96308330	3.54001791	-0.06487892	-0.16636621	0.19751893
5187	51.86000000	-0.39632667	-0.02768997	-0.19180215	-0.18575629	-0.13097763	0.15061611	2.75632861	-0.15023394	3.73291045	0.44661926	-0.06621645	-1.00173269	0.06632881	0.21193528	0.89490331	-0.51001807	-0.08736653	0.89512059	-1.10271711	0.78382828	3.73445463	-0.13167263	-0.22211538	0.22195914
5188	51.87000000	-0.33664844	0.01003153	-0.17731885	-0.16131920	-0.18443122	0.15424003	2.51903162	-0.56412121	3.00559255	0.35787441	-0.11975577	-1.01687120	0.10926772	0.24806139	0.95082659	-0.42758052	-0.07139131	0.86399823	-0.96959065	0.83596427	3.47594872	-0.10041488	-0.24956472	0.24223886
5189	51.88000000	-0.28128658	0.04964490	-0.15085234	-0.12150876	-0.22478990	0.14506433	1.12512959	-0.25304448	2.84243932	0.04974009	-0.22591854	-1.02147656	0.08254952	0.26897312	1.02500636	-0.28389828	-0.04680604	0.81803432	-0.36357092	0.98956879	2.99224683	-0.15415394	-0.31270678	0.26075263
5190	51.89000000	-0.21286122	0.08152014	-0.12083537	-0.06851079	-0.24801699	0.14226133	0.09794337	0.46174803	2.76191665	-0.37752807	-0.41545119	-0.95678553	-0.01264573	0.26074580	1.12217721	-0.15416031	-0.04221230	0.76850038	0.32186847	1.35524515	2.45714928	-0.13583354	-0.35127619	0.27864637
5191	51.90000000	-0.14970403	0.12614991	-0.09186182	-0.01102210	-0.24885285	0.12306293	-0.18989135	0.50266453	2.25440139	-0.68629235	-0.57544645	-0.75695905	-0.09873060	0.23463004	1.22775729	-0.08977835	-0.06013072	0.71728815	0.83324770	1.59838863	1.80339561	-0.20001245	-0.45039075	0.32769657
5192	51.91000000	-0.09252972	0.17300915	-0.06629587	0.04584279	-0.24934254	0.10814950	-0.26432376	-0.11576848	1.49960847	-0.74818473	-0.65744850	-0.47566208	-0.11869232	0.23563954	1.31806546	-0.07803426	-0.08242166	0.68509524	0.73065965	1.47919941	1.08612340	-0.35023708	-0.52567532	0.38275657
5193	51.92000000	-0.04799647	0.21801258	-0.03981953	0.07842403	-0.23766901	0.08708875	-0.48359074	-0.62957027	0.71514263	-0.67769191	-0.64417369	-0.14791731	-0.09784023	0.25954879	1.39201211	-0.09628866	-0.07699380	0.64769186	-0.11630634	1.00382330	0.33210093	-0.31905394	-0.64680544	0.42058953
5194	51.93000000	0.00923046	0.26003893	-0.01961508	0.09249075	-0.24048941	0.05726572	-1.22819554	-0.95085209	-0.06796620	-0.73492637	-0.55836639	0.16660395	-0.02950924	0.27373753	1.46985092	-0.09903354	-0.03729858	0.58424487	-1.13723815	0.38726275	-0.46010900	-0.47357327	-0.72370254	0.43476009
5195	51.94000000	0.07790622	0.31017276	-0.00763232	0.11290588	-0.24911953	0.01897279	-2.10461664	-1.08256863	-0.79615365	-0.97154566	-0.52583310	0.41994384	0.09114919	0.29775617	1.56034596	-0.08469805	0.03993298	0.48299612	-1.94506241	-0.20091380	-1.20198805	-0.39364331	-0.86146468	0.43739798
5196	51.95000000	0.13009915	0.35576759	0.00240637	0.14777057	-0.24415781	-0.04225672	-2.44090345	-0.98654664	-1.35231611	-1.11625783	-0.49230759	0.58206039	0.20700970	0.31730854	1.65540280	-0.02492518	0.14269024	0.37119798	-2.12905533	-0.67717745	-1.96465459	-0.31453607	-1.01828334	0.47697451
5197	51.96000000	0.18161592	0.41051719	-0.00320914	0.20835253	-0.23417813	-0.11601406	-2.25239593	-0.84768120	-1.75881416	-1.06863014	-0.41839468	0.65805649	0.29537718	0.31057394	1.74820678	0.08456608	0.25230949	0.27269131	2.57768350	-1.28043211	-2.95615182	-0.49017243	-1.12941210	0.53101890
5198	51.97000000	0.25113165	0.46881550	-0.03370564	0.30308497	-0.23135388	-0.17395161	-2.08241708	-0.69113008	-2.02339617	-0.94251003	-0.40502661	0.64367920	0.32068945	0.28992869	1.85151390	0.23662326	0.35613443	0.19455177	4.29938639	-1.85906222	-1.73933931	-0.36773119	-1.29651313	0.57223313
